<svg xmlns="http://www.w3.org/2000/svg" width="66px" height="13px" viewBox="0 0 66 13">
  <path fill-rule="evenodd" d="M38.1 12.7h1.72V.33H38.1m21 7.07l1.5-4.35 1.5 4.35h-3zM61.26.33h-1.34L55.38 12.7h1.83l1.3-3.63h4.2L64 12.7h1.83L61.27.34zM47.56 2h2.68L52 3.74l1.2-1.18L50.94.33h-4.1l-3.28 3.25v5.87l3.3 3.26h4.08l2.24-2.2L52 9.3l-1.76 1.73h-2.68l-2.3-2.27V4.28M32.78 8.45v.98l-1.63 1.6h-3.62V6.97h3.74l1.5 1.5zM27.53 2h3.5l1.3 1.3V4L31 5.3h-3.47V2zM34 4.68V2.6L31.7.34h-5.86V12.7h6l2.6-2.58V7.76L32.67 6 34 4.68zm-13.56-.15L18.97 6h-4.02V2H19l1.44 1.42v1.1zm-7.2-4.2V12.7h1.7v-5H18l2.22 5.03h1.9l-2.3-5.15 2.33-2.33v-2.5L19.7.33h-6.47zM7.76 9.3L6 11H3.55L1.8 9.3V.32H.1V10l2.7 2.7h3.94L9.47 10V.33h-1.7"/>
</svg>
