<?xml version="1.0" encoding="UTF-8"?>
<svg width="498px" height="72px" viewBox="0 0 498 72" version="1.1" xmlns="http://www.w3.org/2000/svg" xmlns:xlink="http://www.w3.org/1999/xlink">
    <!-- Generator: Sketch 44.1 (41455) - http://www.bohemiancoding.com/sketch -->
    <title>Walkstreets</title>
    <desc>Created with Sketch.</desc>
    <defs></defs>
    <g id="Page-1" stroke="none" stroke-width="1" fill="none" fill-rule="evenodd">
        <g id="iPad-Pro" transform="translate(-262.000000, -650.000000)" fill="#000000">
            <path d="M286.2,689.1 L287.5,701.5 L287.9,701.5 L289.3,688.9 L301.5,650 L310.5,650 L322.5,689.1 L323.9,701.5 L324.3,701.5 L325.8,688.9 L334.3,650 L348.2,650 L328.9,720.5 L319.7,720.5 L307.2,681.6 L305.5,670.9 L305,670.9 L303.3,681.7 L290.9,720.5 L281.2,720.5 L262,650 L276.9,650 L286.2,689.1 Z M348.8,672.9 C351.46668,671.699994 354.633315,670.750004 358.3,670.05 C361.966685,669.349996 365.79998,669 369.8,669 C373.266684,669 376.166655,669.416663 378.5,670.25 C380.833345,671.083337 382.683327,672.266659 384.05,673.8 C385.416674,675.333341 386.38333,677.166656 386.95,679.3 C387.51667,681.433344 387.8,683.83332 387.8,686.5 C387.8,689.433348 387.700001,692.383318 387.5,695.35 C387.299999,698.316681 387.183334,701.233319 387.15,704.1 C387.116667,706.966681 387.199999,709.749986 387.4,712.45 C387.600001,715.150014 388.099996,717.699988 388.9,720.1 L378.3,720.1 L376.2,713.2 L375.7,713.2 C374.36666,715.266677 372.516679,717.049993 370.15,718.55 C367.783321,720.050007 364.733352,720.8 361,720.8 C358.666655,720.8 356.566676,720.450003 354.7,719.75 C352.833324,719.049997 351.23334,718.050006 349.9,716.75 C348.56666,715.449994 347.533337,713.916675 346.8,712.15 C346.066663,710.383324 345.7,708.400011 345.7,706.2 C345.7,703.133318 346.383327,700.55001 347.75,698.45 C349.116673,696.349989 351.083321,694.650007 353.65,693.35 C356.216679,692.049994 359.283316,691.150003 362.85,690.65 C366.416684,690.149998 370.399978,689.999999 374.8,690.2 C375.266669,686.466648 375.000005,683.783342 374,682.15 C372.999995,680.516658 370.766684,679.7 367.3,679.7 C364.699987,679.7 361.950015,679.966664 359.05,680.5 C356.149986,681.033336 353.766676,681.733329 351.9,682.6 L348.8,672.9 Z M365.3,710.1 C367.900013,710.1 369.966659,709.516673 371.5,708.35 C373.033341,707.183328 374.166663,705.93334 374.9,704.6 L374.9,698.1 C372.833323,697.899999 370.850009,697.866666 368.95,698 C367.049991,698.133334 365.366674,698.433331 363.9,698.9 C362.433326,699.366669 361.266671,700.033329 360.4,700.9 C359.533329,701.766671 359.1,702.86666 359.1,704.2 C359.1,706.066676 359.649995,707.516662 360.75,708.55 C361.850006,709.583338 363.366657,710.1 365.3,710.1 Z M412.1,703.2 C412.1,705.533345 412.399997,707.233328 413,708.3 C413.600003,709.366672 414.56666,709.9 415.9,709.9 C416.700004,709.9 417.483329,709.833334 418.25,709.7 C419.016671,709.566666 419.966661,709.266669 421.1,708.8 L422.5,719 C421.433328,719.533336 419.800011,720.066664 417.6,720.6 C415.399989,721.133336 413.133345,721.4 410.8,721.4 C406.999981,721.4 404.10001,720.516676 402.1,718.75 C400.09999,716.983324 399.1,714.066687 399.1,710 L399.1,650 L412.1,650 L412.1,703.2 Z M444.6,699.3 L441.1,699.3 L441.1,720 L428.1,720 L428.1,650 L441.1,650 L441.1,691.3 L444.1,689.9 L455.5,670 L469.8,670 L457.8,689 L452.7,692.8 L458.2,696.7 L471.7,720 L456.8,720 L444.6,699.3 Z M497.9,706.2 C497.9,704.86666 497.333339,703.800004 496.2,703 C495.066661,702.199996 493.666675,701.46667 492,700.8 C490.333325,700.13333 488.50001,699.450003 486.5,698.75 C484.49999,698.049997 482.666675,697.083339 481,695.85 C479.333325,694.61666 477.933339,693.050009 476.8,691.15 C475.666661,689.24999 475.1,686.800015 475.1,683.8 C475.1,678.866642 476.566652,675.100013 479.5,672.5 C482.433348,669.899987 486.666639,668.6 492.2,668.6 C496.000019,668.6 499.433318,668.999996 502.5,669.8 C505.566682,670.600004 507.966658,671.499995 509.7,672.5 L506.8,681.9 C505.266659,681.299997 503.333345,680.66667 501,680 C498.666655,679.33333 496.300012,679 493.9,679 C490.033314,679 488.1,680.499985 488.1,683.5 C488.1,684.700006 488.666661,685.666663 489.8,686.4 C490.933339,687.133337 492.333325,687.816664 494,688.45 C495.666675,689.083336 497.49999,689.766663 499.5,690.5 C501.50001,691.233337 503.333325,692.183328 505,693.35 C506.666675,694.516673 508.066661,696.033324 509.2,697.9 C510.333339,699.766676 510.9,702.166652 510.9,705.1 C510.9,710.166692 509.283349,714.149985 506.05,717.05 C502.81665,719.950014 497.966699,721.4 491.5,721.4 C487.966649,721.4 484.650015,720.950004 481.55,720.05 C478.449985,719.149996 475.933343,718.100006 474,716.9 L477.6,707.2 C479.133341,708.066671 481.166654,708.916663 483.7,709.75 C486.233346,710.583337 488.83332,711 491.5,711 C493.433343,711 494.983327,710.633337 496.15,709.9 C497.316672,709.166663 497.9,707.933342 497.9,706.2 Z M514.2,670 L521.1,670 L521.1,660.6 L534.1,656.9 L534.1,670 L546.3,670 L546.3,681 L534.1,681 L534.1,700.2 C534.1,703.666684 534.449996,706.149993 535.15,707.65 C535.850003,709.150008 537.166657,709.9 539.1,709.9 C540.43334,709.9 541.583328,709.766668 542.55,709.5 C543.516672,709.233332 544.599994,708.833336 545.8,708.3 L548.1,718.3 C546.299991,719.166671 544.200012,719.899997 541.8,720.5 C539.399988,721.100003 536.966679,721.4 534.5,721.4 C529.899977,721.4 526.516678,720.216678 524.35,717.85 C522.183323,715.483321 521.1,711.600027 521.1,706.2 L521.1,681 L514.2,681 L514.2,670 Z M581.9,682.2 C579.833323,681.466663 577.966675,681.1 576.3,681.1 C573.966655,681.1 572.016674,681.71666 570.45,682.95 C568.883325,684.183339 567.833336,685.766657 567.3,687.7 L567.3,720 L554.3,720 L554.3,670 L564.4,670 L565.9,676.6 L566.3,676.6 C567.433339,674.133321 568.966657,672.23334 570.9,670.9 C572.833343,669.56666 575.099987,668.9 577.7,668.9 C579.433342,668.9 581.399989,669.266663 583.6,670 L581.9,682.2 Z M629.4,715.7 C627.39999,717.300008 624.68335,718.649995 621.25,719.75 C617.81665,720.850005 614.166686,721.4 610.3,721.4 C602.233293,721.4 596.333352,719.050023 592.6,714.35 C588.866648,709.649976 587,703.200041 587,695 C587,686.199956 589.099979,679.600022 593.3,675.2 C597.500021,670.799978 603.399962,668.6 611,668.6 C613.533346,668.6 615.999988,668.93333 618.4,669.6 C620.800012,670.26667 622.933324,671.366659 624.8,672.9 C626.666676,674.433341 628.166661,676.499987 629.3,679.1 C630.433339,681.700013 631,684.933314 631,688.8 C631,690.200007 630.916667,691.699992 630.75,693.3 C630.583332,694.900008 630.333335,696.566658 630,698.3 L600,698.3 C600.200001,702.500021 601.283324,705.666656 603.25,707.8 C605.216676,709.933344 608.399978,711 612.8,711 C615.533347,711 617.983322,710.583337 620.15,709.75 C622.316677,708.916663 623.966661,708.066671 625.1,707.2 L629.4,715.7 Z M610.8,679 C607.399983,679 604.883342,680.016656 603.25,682.05 C601.616658,684.083343 600.633335,686.799983 600.3,690.2 L618.9,690.2 C619.166668,686.599982 618.616673,683.833343 617.25,681.9 C615.883327,679.966657 613.733348,679 610.8,679 Z M679.7,715.7 C677.69999,717.300008 674.98335,718.649995 671.55,719.75 C668.116649,720.850005 664.466686,721.4 660.6,721.4 C652.533293,721.4 646.633352,719.050023 642.9,714.35 C639.166648,709.649976 637.3,703.200041 637.3,695 C637.3,686.199956 639.399979,679.600022 643.6,675.2 C647.800021,670.799978 653.699962,668.6 661.3,668.6 C663.833346,668.6 666.299988,668.93333 668.7,669.6 C671.100012,670.26667 673.233324,671.366659 675.1,672.9 C676.966676,674.433341 678.466661,676.499987 679.6,679.1 C680.733339,681.700013 681.3,684.933314 681.3,688.8 C681.3,690.200007 681.216668,691.699992 681.05,693.3 C680.883333,694.900008 680.633335,696.566658 680.3,698.3 L650.3,698.3 C650.500001,702.500021 651.583324,705.666656 653.55,707.8 C655.516676,709.933344 658.699978,711 663.1,711 C665.833347,711 668.283322,710.583337 670.45,709.75 C672.616677,708.916663 674.266661,708.066671 675.4,707.2 L679.7,715.7 Z M661.1,679 C657.699983,679 655.183341,680.016656 653.55,682.05 C651.916659,684.083343 650.933335,686.799983 650.6,690.2 L669.2,690.2 C669.466668,686.599982 668.916674,683.833343 667.55,681.9 C666.183327,679.966657 664.033348,679 661.1,679 Z M685.3,670 L692.2,670 L692.2,660.6 L705.2,656.9 L705.2,670 L717.4,670 L717.4,681 L705.2,681 L705.2,700.2 C705.2,703.666684 705.549996,706.149993 706.25,707.65 C706.950003,709.150008 708.266657,709.9 710.2,709.9 C711.53334,709.9 712.683329,709.766668 713.65,709.5 C714.616671,709.233332 715.699994,708.833336 716.9,708.3 L719.2,718.3 C717.399991,719.166671 715.300012,719.899997 712.9,720.5 C710.499988,721.100003 708.066679,721.4 705.6,721.4 C700.999977,721.4 697.616677,720.216678 695.45,717.85 C693.283322,715.483321 692.2,711.600027 692.2,706.2 L692.2,681 L685.3,681 L685.3,670 Z M746.1,706.2 C746.1,704.86666 745.533339,703.800004 744.4,703 C743.266661,702.199996 741.866675,701.46667 740.2,700.8 C738.533325,700.13333 736.70001,699.450003 734.7,698.75 C732.69999,698.049997 730.866675,697.083339 729.2,695.85 C727.533325,694.61666 726.133339,693.050009 725,691.15 C723.866661,689.24999 723.3,686.800015 723.3,683.8 C723.3,678.866642 724.766652,675.100013 727.7,672.5 C730.633348,669.899987 734.866639,668.6 740.4,668.6 C744.200019,668.6 747.633318,668.999996 750.7,669.8 C753.766682,670.600004 756.166658,671.499995 757.9,672.5 L755,681.9 C753.466659,681.299997 751.533345,680.66667 749.2,680 C746.866655,679.33333 744.500012,679 742.1,679 C738.233314,679 736.3,680.499985 736.3,683.5 C736.3,684.700006 736.866661,685.666663 738,686.4 C739.133339,687.133337 740.533325,687.816664 742.2,688.45 C743.866675,689.083336 745.69999,689.766663 747.7,690.5 C749.70001,691.233337 751.533325,692.183328 753.2,693.35 C754.866675,694.516673 756.266661,696.033324 757.4,697.9 C758.533339,699.766676 759.1,702.166652 759.1,705.1 C759.1,710.166692 757.48335,714.149985 754.25,717.05 C751.01665,719.950014 746.166699,721.4 739.7,721.4 C736.166649,721.4 732.850015,720.950004 729.75,720.05 C726.649984,719.149996 724.133343,718.100006 722.2,716.9 L725.8,707.2 C727.333341,708.066671 729.366654,708.916663 731.9,709.75 C734.433346,710.583337 737.03332,711 739.7,711 C741.633343,711 743.183327,710.633337 744.35,709.9 C745.516672,709.166663 746.1,707.933342 746.1,706.2 Z" id="Walkstreets"></path>
        </g>
    </g>
</svg>